<svg width="18" height="18" viewBox="0 0 18 18" fill="none" xmlns="http://www.w3.org/2000/svg">
<path d="M6.98342 1.16998C5.62866 0.393852 3.73506 0.0136625 1.1999 0.000164637C0.96081 -0.00373305 0.726409 0.0799229 0.527958 0.239977C0.365067 0.372089 0.231727 0.550206 0.139666 0.758661C0.0476053 0.967117 -0.000355606 1.19952 1.98503e-06 1.43544V14.3079C1.98503e-06 15.1781 0.515959 15.8345 1.1999 15.8345C3.8648 15.8345 6.53795 16.1333 8.13907 17.9492C8.16097 17.9741 8.1885 17.9908 8.21824 17.9972C8.24798 18.0035 8.27861 17.9992 8.30634 17.9848C8.33406 17.9704 8.35765 17.9466 8.37418 17.9163C8.39071 17.8859 8.39944 17.8504 8.3993 17.8142V2.64665C8.39934 2.54432 8.38109 2.44317 8.34577 2.35003C8.31045 2.25689 8.25889 2.17392 8.19457 2.10673C7.82781 1.73052 7.42042 1.41542 6.98342 1.16998ZM17.4705 0.238627C17.272 0.0789714 17.0376 -0.00421747 16.7986 0.000164637C14.2634 0.0136625 12.3698 0.392053 11.0151 1.16998C10.5781 1.41497 10.1706 1.72945 9.80356 2.10493C9.73936 2.17222 9.68791 2.25521 9.65266 2.34834C9.61741 2.44147 9.59918 2.54257 9.5992 2.64485V17.8133C9.59918 17.8481 9.60773 17.8822 9.62378 17.9112C9.63984 17.9402 9.66267 17.9629 9.68942 17.9764C9.71618 17.9899 9.74566 17.9936 9.77417 17.9871C9.80267 17.9806 9.82894 17.9641 9.84968 17.9397C10.8122 16.7924 12.5015 15.8332 16.8001 15.8336C17.1183 15.8336 17.4235 15.6819 17.6486 15.4119C17.8736 15.1419 18 14.7757 18 14.3938V1.43589C18.0004 1.19951 17.9524 0.966632 17.86 0.757826C17.7677 0.549019 17.6339 0.370705 17.4705 0.238627Z" fill="black"/>
</svg>
