<svg width="17" height="10" viewBox="0 0 17 10" fill="none" xmlns="http://www.w3.org/2000/svg">
<path fill-rule="evenodd" clip-rule="evenodd" d="M9.22036 9.22036C8.98595 9.4547 8.66807 9.58634 8.33661 9.58634C8.00515 9.58634 7.68727 9.4547 7.45286 9.22036L0.381611 2.14911C0.262223 2.0338 0.166995 1.89587 0.101484 1.74337C0.0359723 1.59086 0.00148947 1.42684 4.71955e-05 1.26086C-0.00139507 1.09489 0.0302324 0.930289 0.0930835 0.776668C0.155935 0.623048 0.248751 0.483482 0.366117 0.366116C0.483483 0.24875 0.623047 0.155934 0.776668 0.0930829C0.930288 0.0302318 1.09489 -0.00139507 1.26086 4.71963e-05C1.42684 0.00148947 1.59086 0.0359723 1.74337 0.101484C1.89587 0.166995 2.0338 0.262222 2.14911 0.38161L8.33661 6.56911L14.5241 0.38161C14.7599 0.153912 15.0756 0.0279194 15.4034 0.0307674C15.7311 0.0336155 16.0446 0.165076 16.2764 0.396837C16.5081 0.628597 16.6396 0.942113 16.6425 1.26986C16.6453 1.5976 16.5193 1.91336 16.2916 2.14911L9.22036 9.22036Z" fill="black"/>
</svg>