<svg width="12" height="7" viewBox="0 0 12 7" fill="none" xmlns="http://www.w3.org/2000/svg">
<path d="M4.88202 0.292444L0.29202 4.88244C0.199438 4.97503 0.125998 5.08494 0.0758934 5.2059C0.0257884 5.32687 9.75509e-10 5.45651 0 5.58744C-9.75509e-10 5.71837 0.0257884 5.84802 0.0758934 5.96899C0.125998 6.08995 0.199438 6.19986 0.29202 6.29244C0.384602 6.38503 0.494513 6.45847 0.615477 6.50857C0.736441 6.55868 0.86609 6.58447 0.997021 6.58447C1.12795 6.58447 1.2576 6.55868 1.37856 6.50857C1.49953 6.45847 1.60944 6.38503 1.70202 6.29244L5.59202 2.41244L9.47202 6.29244C9.5646 6.38503 9.67451 6.45847 9.79548 6.50857C9.91644 6.55868 10.0461 6.58447 10.177 6.58447C10.3079 6.58447 10.4376 6.55868 10.5586 6.50857C10.6795 6.45847 10.7894 6.38503 10.882 6.29244C10.9746 6.19986 11.048 6.08995 11.0981 5.96899C11.1483 5.84802 11.174 5.71837 11.174 5.58744C11.174 5.45651 11.1483 5.32687 11.0981 5.2059C11.048 5.08494 10.9746 4.97503 10.882 4.88244L6.29202 0.292444C6.19951 0.199741 6.08962 0.126193 5.96864 0.0760117C5.84767 0.0258302 5.71799 0 5.58702 0C5.45605 0 5.32637 0.0258302 5.2054 0.0760117C5.08442 0.126193 4.97453 0.199741 4.88202 0.292444Z" fill="black"/>
</svg>
