<svg width="35" height="35" viewBox="0 0 35 35" fill="none" xmlns="http://www.w3.org/2000/svg">
<path d="M29.1665 5.8335H5.83317C4.229 5.8335 2.93109 7.146 2.93109 8.75016L2.9165 26.2502C2.9165 27.8543 4.229 29.1668 5.83317 29.1668H29.1665C30.7707 29.1668 32.0832 27.8543 32.0832 26.2502V8.75016C32.0832 7.146 30.7707 5.8335 29.1665 5.8335ZM28.5832 12.0314L18.2728 18.4772C17.8061 18.7689 17.1936 18.7689 16.7269 18.4772L6.4165 12.0314C6.27027 11.9493 6.14222 11.8384 6.04009 11.7054C5.93796 11.5724 5.86389 11.42 5.82234 11.2576C5.7808 11.0951 5.77265 10.9259 5.7984 10.7602C5.82414 10.5945 5.88324 10.4357 5.97212 10.2935C6.061 10.1513 6.17781 10.0286 6.31548 9.93286C6.45315 9.83711 6.60882 9.77028 6.77306 9.73643C6.9373 9.70258 7.10671 9.70241 7.27102 9.73592C7.43533 9.76943 7.59114 9.83594 7.729 9.93141L17.4998 16.0418L27.2707 9.93141C27.4085 9.83594 27.5643 9.76943 27.7287 9.73592C27.893 9.70241 28.0624 9.70258 28.2266 9.73643C28.3909 9.77028 28.5465 9.83711 28.6842 9.93286C28.8219 10.0286 28.9387 10.1513 29.0275 10.2935C29.1164 10.4357 29.1755 10.5945 29.2013 10.7602C29.227 10.9259 29.2189 11.0951 29.1773 11.2576C29.1358 11.42 29.0617 11.5724 28.9596 11.7054C28.8575 11.8384 28.7294 11.9493 28.5832 12.0314Z" fill="black"/>
</svg>
