<svg width="25" height="24" viewBox="0 0 25 24" fill="none" xmlns="http://www.w3.org/2000/svg">
<path fill-rule="evenodd" clip-rule="evenodd" d="M12.25 22.25C18.4631 22.25 23.5 17.0487 23.5 13.5C23.5 9.95125 18.4631 4.75 12.25 4.75C6.03687 4.75 1 9.955 1 13.5C1 17.045 6.03687 22.25 12.25 22.25Z" fill="black" stroke="white" stroke-width="2" stroke-linejoin="round"/>
<path d="M12.25 17.25C13.2446 17.25 14.1984 16.8549 14.9017 16.1517C15.6049 15.4484 16 14.4946 16 13.5C16 12.5054 15.6049 11.5516 14.9017 10.8483C14.1984 10.1451 13.2446 9.75 12.25 9.75C11.2554 9.75 10.3016 10.1451 9.59835 10.8483C8.89509 11.5516 8.5 12.5054 8.5 13.5C8.5 14.4946 8.89509 15.4484 9.59835 16.1517C10.3016 16.8549 11.2554 17.25 12.25 17.25Z" fill="black" stroke="white" stroke-width="2" stroke-linejoin="round"/>
<path d="M5.54004 3.66625L7.16129 5.92875L5.54004 3.66625ZM19.5157 3.94375L17.8938 6.20625L19.5157 3.94375ZM12.2557 1V4.75V1Z" fill="black"/>
<path d="M5.54004 3.66625L7.16129 5.92875M19.5157 3.94375L17.8938 6.20625M12.2557 1V4.75" stroke="white" stroke-width="2" stroke-linecap="round"/>
</svg>
