<svg width="21" height="18" viewBox="0 0 21 18" fill="none" xmlns="http://www.w3.org/2000/svg">
<path d="M15 18L14.7 16.5C14.5 16.4167 14.3127 16.3293 14.138 16.238C13.9633 16.1467 13.784 16.034 13.6 15.9L12.15 16.35L11.15 14.65L12.3 13.65C12.2667 13.45 12.25 13.2333 12.25 13C12.25 12.7667 12.2667 12.55 12.3 12.35L11.15 11.35L12.15 9.65L13.6 10.1C13.7833 9.96667 13.9627 9.85433 14.138 9.763C14.3133 9.67167 14.5007 9.584 14.7 9.5L15 8H17L17.3 9.5C17.5 9.58333 17.6877 9.671 17.863 9.763C18.0383 9.855 18.2173 9.96733 18.4 10.1L19.85 9.65L20.85 11.35L19.7 12.35C19.7333 12.55 19.75 12.7667 19.75 13C19.75 13.2333 19.7333 13.45 19.7 13.65L20.85 14.65L19.85 16.35L18.4 15.9C18.2167 16.0333 18.0377 16.146 17.863 16.238C17.6883 16.33 17.5007 16.4173 17.3 16.5L17 18H15ZM16 15C16.55 15 17.021 14.8043 17.413 14.413C17.805 14.0217 18.0007 13.5507 18 13C17.9993 12.4493 17.8037 11.9787 17.413 11.588C17.0223 11.1973 16.5513 11.0013 16 11C15.4487 10.9987 14.978 11.1947 14.588 11.588C14.198 11.9813 14.002 12.452 14 13C13.998 13.548 14.194 14.019 14.588 14.413C14.982 14.807 15.4527 15.0027 16 15ZM2 16C1.45 16 0.979333 15.8043 0.588 15.413C0.196667 15.0217 0.000666667 14.5507 0 14V2C0 1.45 0.196 0.979333 0.588 0.588C0.98 0.196666 1.45067 0.000666667 2 0H8L10 2H18C18.55 2 19.021 2.196 19.413 2.588C19.805 2.98 20.0007 3.45067 20 4V7.275C19.4167 6.85833 18.7833 6.54167 18.1 6.325C17.4167 6.10833 16.7083 6 15.975 6C14.0083 6 12.3543 6.68767 11.013 8.063C9.67167 9.43833 9.00067 11.0757 9 12.975C9 13.5083 9.05833 14.025 9.175 14.525C9.29167 15.025 9.46667 15.5167 9.7 16H2Z" fill="white"/>
</svg>
