<svg width="22" height="22" viewBox="0 0 22 22" fill="none" xmlns="http://www.w3.org/2000/svg">
<path opacity="0.987" fill-rule="evenodd" clip-rule="evenodd" d="M9.31113 0.0949219C10.4439 -0.0316406 11.1143 -0.0316406 12.3314 0.0949219C14.486 0.41382 16.4833 1.40974 18.0346 2.93867C16.9863 3.92951 15.9519 4.93481 14.9314 5.9543C12.9773 4.29805 10.796 3.91576 8.3877 4.80742C6.62103 5.61992 5.39082 6.93659 4.69707 8.75742C3.56338 7.91341 2.44446 7.04973 1.34082 6.1668C1.26412 6.12642 1.17652 6.11164 1.09082 6.12461C2.84395 2.7444 5.58353 0.733984 9.30957 0.0933593" fill="#F44336"/>
<path opacity="0.997" fill-rule="evenodd" clip-rule="evenodd" d="M1.08789 6.12461C1.17644 6.11107 1.26029 6.12513 1.33946 6.1668C2.4431 7.04974 3.56202 7.91341 4.69571 8.75742C4.51731 9.46689 4.40485 10.1913 4.35977 10.9215C4.39831 11.6277 4.51029 12.321 4.69571 13.0012L1.17227 15.8059C-0.362106 12.5996 -0.390231 9.37253 1.08789 6.12461Z" fill="#FFC107"/>
<path opacity="0.999" fill-rule="evenodd" clip-rule="evenodd" d="M17.8675 19.2027C16.7704 18.2352 15.6218 17.3276 14.4269 16.484C15.6248 15.6381 16.3519 14.4777 16.6081 13.0027H10.7378V8.92616C14.1232 8.89804 17.5071 8.92668 20.8894 9.0121C21.531 12.4965 20.7899 15.6381 18.6659 18.4371C18.4134 18.7056 18.1458 18.9611 17.8675 19.2027Z" fill="#448AFF"/>
<path opacity="0.993" fill-rule="evenodd" clip-rule="evenodd" d="M4.6958 13.0027C5.97705 16.1871 8.32601 17.6736 11.7427 17.4621C12.7018 17.3511 13.6213 17.016 14.427 16.484C15.6229 17.3298 16.7698 18.2361 17.8677 19.2027C16.1281 20.766 13.91 21.6935 11.5755 21.834C11.0451 21.8764 10.5121 21.8764 9.98174 21.834C6.00465 21.3652 3.0682 19.3559 1.17236 15.8059L4.6958 13.0027Z" fill="#43A047"/>
</svg>