<svg width="35" height="35" viewBox="0 0 35 35" fill="none" xmlns="http://www.w3.org/2000/svg">
<path d="M13.1308 4.9819C12.2966 3.80065 11.1416 3.26836 9.9166 3.28149C8.75431 3.29315 7.62264 3.79045 6.67764 4.45253C5.71377 5.13112 4.89189 5.99164 4.25827 6.98565C3.66035 7.93211 3.22868 9.05065 3.28702 10.1429C3.56848 15.3973 6.52452 21.0119 10.6764 25.1667C14.8254 29.3171 20.3656 32.2017 25.9597 31.6504C27.0564 31.5425 28.0933 30.984 28.9406 30.2723C29.8169 29.53 30.5329 28.617 31.0449 27.589C31.5408 26.5798 31.8368 25.4161 31.6735 24.2829C31.5043 23.1017 30.8437 22.0459 29.6289 21.3459C29.3772 21.1998 29.1283 21.0491 28.8822 20.8938C28.6635 20.7582 28.4301 20.6109 28.1472 20.4417C27.5694 20.0854 26.9596 19.7837 26.3258 19.5404C25.6739 19.3027 24.9287 19.1467 24.1529 19.2532C23.3493 19.364 22.6026 19.7432 21.9566 20.4227C21.4593 20.9477 20.7272 21.1111 19.6976 20.8136C18.6506 20.5102 17.4722 19.7577 16.4485 18.7398C15.4247 17.7248 14.6504 16.5377 14.3193 15.4659C13.9926 14.4042 14.137 13.624 14.6474 13.0859C15.3372 12.3596 15.7047 11.5517 15.782 10.6971C15.8579 9.86586 15.6508 9.0842 15.3547 8.4017C14.9114 7.38232 14.1589 6.36878 13.5697 5.57836C13.4216 5.38075 13.2758 5.18143 13.1322 4.98045" fill="black"/>
</svg>
