<svg width="19" height="19" viewBox="0 0 19 19" fill="none" xmlns="http://www.w3.org/2000/svg">
<path d="M6.77083 0C8.56657 0 10.2888 0.713353 11.5585 1.98313C12.8283 3.25291 13.5417 4.9751 13.5417 6.77083C13.5417 8.44792 12.9271 9.98958 11.9167 11.1771L12.1979 11.4583H13.0208L18.2292 16.6667L16.6667 18.2292L11.4583 13.0208V12.1979L11.1771 11.9167C9.9483 12.9651 8.38609 13.5412 6.77083 13.5417C4.9751 13.5417 3.25291 12.8283 1.98313 11.5585C0.713353 10.2888 0 8.56657 0 6.77083C0 4.9751 0.713353 3.25291 1.98313 1.98313C3.25291 0.713353 4.9751 0 6.77083 0ZM6.77083 2.08333C4.16667 2.08333 2.08333 4.16667 2.08333 6.77083C2.08333 9.375 4.16667 11.4583 6.77083 11.4583C9.375 11.4583 11.4583 9.375 11.4583 6.77083C11.4583 4.16667 9.375 2.08333 6.77083 2.08333Z" fill="#7F7F7F"/>
</svg>