<svg width="30" height="29" viewBox="0 0 30 29" fill="none" xmlns="http://www.w3.org/2000/svg">
<path fill-rule="evenodd" clip-rule="evenodd" d="M17.5 0C18.6603 0 19.7731 0.460936 20.5936 1.28141C21.4141 2.10188 21.875 3.21468 21.875 4.375H26.25C27.0235 4.375 27.7654 4.68229 28.3124 5.22927C28.8594 5.77625 29.1667 6.51812 29.1667 7.29167V21.875C29.1667 22.6485 28.8594 23.3904 28.3124 23.9374C27.7654 24.4844 27.0235 24.7917 26.25 24.7917H2.91667C2.14312 24.7917 1.40125 24.4844 0.854272 23.9374C0.307291 23.3904 0 22.6485 0 21.875V7.29167C0 6.51812 0.307291 5.77625 0.854272 5.22927C1.40125 4.68229 2.14312 4.375 2.91667 4.375H7.29167C7.29167 3.21468 7.7526 2.10188 8.57307 1.28141C9.39355 0.460936 10.5063 0 11.6667 0H17.5ZM8.75 5.83333C8.39281 5.83338 8.04805 5.96452 7.78112 6.20188C7.5142 6.43923 7.34367 6.7663 7.30187 7.12104L7.29167 7.29167V21.875C7.29208 22.2467 7.43441 22.6042 7.68957 22.8745C7.94473 23.1448 8.29347 23.3074 8.66453 23.3292C9.03559 23.351 9.40097 23.2303 9.686 22.9917C9.97104 22.7531 10.1542 22.4147 10.1981 22.0456L10.2083 21.875V7.29167C10.2083 6.90489 10.0547 6.53396 9.7812 6.26047C9.50771 5.98698 9.13677 5.83333 8.75 5.83333ZM20.4167 5.83333C20.0299 5.83333 19.659 5.98698 19.3855 6.26047C19.112 6.53396 18.9583 6.90489 18.9583 7.29167V21.875C18.9583 22.2618 19.112 22.6327 19.3855 22.9062C19.659 23.1797 20.0299 23.3333 20.4167 23.3333C20.8034 23.3333 21.1744 23.1797 21.4479 22.9062C21.7214 22.6327 21.875 22.2618 21.875 21.875V7.29167C21.875 6.90489 21.7214 6.53396 21.4479 6.26047C21.1744 5.98698 20.8034 5.83333 20.4167 5.83333ZM17.5 2.91667H11.6667C11.3095 2.91671 10.9647 3.04785 10.6978 3.28521C10.4309 3.52257 10.2603 3.84963 10.2185 4.20437L10.2083 4.375H18.9583C18.9583 4.01781 18.8271 3.67305 18.5898 3.40612C18.3524 3.1392 18.0254 2.96867 17.6706 2.92687L17.5 2.91667Z" fill="black"/>
</svg>
