<svg width="18" height="18" viewBox="0 0 18 18" fill="none" xmlns="http://www.w3.org/2000/svg">
<path d="M2 18C1.45 18 0.979333 17.8239 0.588 17.4717C0.196667 17.1195 0.000666667 16.6956 0 16.2V3.6C0 3.105 0.196 2.6814 0.588 2.3292C0.98 1.977 1.45067 1.8006 2 1.8H6.2C6.41667 1.26 6.77933 0.825 7.288 0.495C7.79667 0.165 8.36733 0 9 0C9.63267 0 10.2037 0.165 10.713 0.495C11.2223 0.825 11.5847 1.26 11.8 1.8H16C16.55 1.8 17.021 1.9764 17.413 2.3292C17.805 2.682 18.0007 3.1056 18 3.6V16.2C18 16.695 17.8043 17.1189 17.413 17.4717C17.0217 17.8245 16.5507 18.0006 16 18H2ZM5 14.4H10C10.2833 14.4 10.521 14.3136 10.713 14.1408C10.905 13.968 11.0007 13.7544 11 13.5C10.9993 13.2456 10.9033 13.032 10.712 12.8592C10.5207 12.6864 10.2833 12.6 10 12.6H5C4.71667 12.6 4.47933 12.6864 4.288 12.8592C4.09667 13.032 4.00067 13.2456 4 13.5C3.99933 13.7544 4.09533 13.9683 4.288 14.1417C4.48067 14.3151 4.718 14.4012 5 14.4ZM5 10.8H13C13.2833 10.8 13.521 10.7136 13.713 10.5408C13.905 10.368 14.0007 10.1544 14 9.9C13.9993 9.6456 13.9033 9.432 13.712 9.2592C13.5207 9.0864 13.2833 9 13 9H5C4.71667 9 4.47933 9.0864 4.288 9.2592C4.09667 9.432 4.00067 9.6456 4 9.9C3.99933 10.1544 4.09533 10.3683 4.288 10.5417C4.48067 10.7151 4.718 10.8012 5 10.8ZM5 7.2H13C13.2833 7.2 13.521 7.1136 13.713 6.9408C13.905 6.768 14.0007 6.5544 14 6.3C13.9993 6.0456 13.9033 5.832 13.712 5.6592C13.5207 5.4864 13.2833 5.4 13 5.4H5C4.71667 5.4 4.47933 5.4864 4.288 5.6592C4.09667 5.832 4.00067 6.0456 4 6.3C3.99933 6.5544 4.09533 6.7683 4.288 6.9417C4.48067 7.1151 4.718 7.2012 5 7.2ZM9 2.925C9.21667 2.925 9.396 2.8611 9.538 2.7333C9.68 2.6055 9.75067 2.4444 9.75 2.25C9.74933 2.0556 9.67833 1.8945 9.537 1.7667C9.39567 1.6389 9.21667 1.575 9 1.575C8.78333 1.575 8.60433 1.6389 8.463 1.7667C8.32167 1.8945 8.25067 2.0556 8.25 2.25C8.24933 2.4444 8.32033 2.6058 8.463 2.7342C8.60567 2.8626 8.78467 2.9262 9 2.925Z" fill="black"/>
</svg>
