<svg width="27" height="26" viewBox="0 0 27 26" fill="none" xmlns="http://www.w3.org/2000/svg">
<path d="M3.33333 25.9584C2.41667 25.9584 1.63222 25.6322 0.98 24.98C0.327777 24.3278 0.00111111 23.5428 0 22.625V19.2917C0 18.8195 0.16 18.4239 0.48 18.105C0.8 17.7861 1.19556 17.6261 1.66667 17.625C2.13778 17.6239 2.53389 17.7839 2.855 18.105C3.17611 18.4261 3.33556 18.8217 3.33333 19.2917V22.625H23.3333V19.2917C23.3333 18.8195 23.4933 18.4239 23.8133 18.105C24.1333 17.7861 24.5289 17.6261 25 17.625C25.4711 17.6239 25.8672 17.7839 26.1883 18.105C26.5094 18.4261 26.6689 18.8217 26.6667 19.2917V22.625C26.6667 23.5417 26.3406 24.3267 25.6883 24.98C25.0361 25.6334 24.2511 25.9595 23.3333 25.9584H3.33333ZM11.6667 5.70836L8.54167 8.83336C8.20833 9.16669 7.81278 9.32669 7.355 9.31336C6.89722 9.30002 6.50111 9.12614 6.16667 8.79169C5.86111 8.45836 5.70111 8.06947 5.68667 7.62502C5.67222 7.18058 5.83222 6.79169 6.16667 6.45836L12.1667 0.458358C12.3333 0.291692 12.5139 0.173914 12.7083 0.105025C12.9028 0.0361363 13.1111 0.00113675 13.3333 2.56413e-05C13.5556 -0.00108547 13.7639 0.0339141 13.9583 0.105025C14.1528 0.176136 14.3333 0.293914 14.5 0.458358L20.5 6.45836C20.8333 6.79169 20.9933 7.18058 20.98 7.62502C20.9667 8.06947 20.8067 8.45836 20.5 8.79169C20.1667 9.12502 19.7711 9.29891 19.3133 9.31336C18.8556 9.3278 18.4594 9.1678 18.125 8.83336L15 5.70836V17.625C15 18.0972 14.84 18.4934 14.52 18.8134C14.2 19.1334 13.8044 19.2928 13.3333 19.2917C12.8622 19.2906 12.4667 19.1306 12.1467 18.8117C11.8267 18.4928 11.6667 18.0972 11.6667 17.625V5.70836Z" fill="black"/>
</svg>
